<svg version="1.1" id="svg8" xmlns="http://www.w3.org/2000/svg" x="0" y="0" viewBox="0 0 793.7 200" xml:space="preserve"><style>.st3{fill:none;stroke:#666566;stroke-miterlimit:10}</style><switch><g><g id="cinza"><path id="rect816" fill="#ececec" d="M32.9 29.7h721.4v146.4H32.9z"/></g><g id="amarelo" transform="translate(0 -244.083)"><path id="rect4620" fill="#ffb300" d="M35.7 273.8h720v146.4h-720z"/></g><g id="vazado" transform="translate(0 -244.083)"><path id="rect3760" d="M22.9 269.8v151.4h751.4V269.8H22.9zm86.1 11.1l20.5 41.9 46.2 6.9-33.6 32.4 7.7 46-41.2-21.9-41.4 21.5 8.1-46L42 329l46.2-6.5 20.8-41.6zm145.7.6l20.5 41.9 46.2 6.9-33.6 32.4 7.7 46-41.3-21.7-41.4 21.5 8.1-46-33.3-32.7 46.2-6.5 20.9-41.8zm143.7.6l20.5 41.9 46.2 6.9-33.6 32.4 7.7 46-41.2-21.9-41.4 21.5 8.1-46-33.3-32.7 46.2-6.5 20.8-41.6zm143.7.6l20.5 41.9 46.2 6.9-33.6 32.5 7.7 46-41.2-21.9-41.4 21.5 8.1-46-33.4-32.7 46.2-6.5 20.9-41.7zm143.7.5l20.5 41.9 46.2 6.9-33.6 32.4 7.7 46-41.2-21.9L644 410l8.1-46-33.3-32.7L665 325l20.8-41.8z" fill="#fff"/></g><g id="contorno5"><path class="st3" d="M685.8 39.8l20.5 42M665 81.6l20.8-41.8M618.8 88.1l46.2-6.5M652 120.8l-33.2-32.7M644 166.8l8-46M685.4 145.3L644 166.8M726.6 167.2l-41.2-21.9M718.9 121.1l7.7 46.1M752.5 88.7l-33.6 32.4M706.3 81.8l46.2 6.9"/></g><g id="contorno4"><path class="st3" d="M542.1 39.1l20.5 42M521.3 80.9l20.8-41.8M475 87.4l46.3-6.5M508.3 120.2L475 87.4M500.2 166.1l8.1-45.9M541.7 144.6l-41.5 21.5M582.9 166.5l-41.2-21.9M575.2 120.4l7.7 46.1M608.8 88l-33.6 32.4M562.6 81.1l46.2 6.9"/></g><g id="contorno2"><path class="st3" d="M398.4 38l20.5 41.9M377.6 79.8L398.4 38M331.3 86.3l46.3-6.5M364.6 119l-33.3-32.7M356.5 165l8.1-46M397.9 143.4L356.5 165M439.2 165.3l-41.3-21.9M431.5 119.3l7.7 46M465 86.9l-33.5 32.4M418.9 79.9l46.1 7"/></g><g id="contorno2_1_"><path class="st3" d="M254.7 38l20.5 41.9M233.9 79.8L254.7 38M187.6 86.3l46.3-6.5M220.9 119l-33.3-32.7M212.8 165l8.1-46M254.2 143.4L212.8 165M295.5 165.3l-41.3-21.9M287.8 119.3l7.7 46M321.3 86.9l-33.5 32.4M275.2 79.9l46.1 7"/></g><g id="contorno1"><path class="st3" d="M108.9 37.4l20.5 42M88.1 79.2l20.8-41.8M41.9 85.7l46.2-6.5M75.2 118.4L41.9 85.7M67.1 164.4l8.1-46M108.5 142.9l-41.4 21.5M149.7 164.8l-41.2-21.9M142 118.7l7.7 46.1M174.6 86.3L142 118.7M129.4 79.4l45.2 6.9"/></g></g></switch></svg>